<?xml version="1.0"?>
<svg width="1080" height="1080" xmlns="http://www.w3.org/2000/svg" xmlns:svg="http://www.w3.org/2000/svg" version="1.1" xml:space="preserve">
 <desc>Created with Fabric.js 5.2.4</desc>

 <g class="layer">
  <title>Layer 1</title>
  <g id="b74a1e7c-e632-4ff8-8bcc-3380f1bd2cdc" transform="matrix(1 0 0 1 540 540)">
   <rect fill="rgb(255,255,255)" fill-rule="nonzero" height="1080" id="svg_1" stroke-dashoffset="0" stroke-miterlimit="4" width="1080" x="-540" y="-540"/>
  </g>
  <g id="60ccc2a1-45d0-4de0-8f0c-11e6b3218ccd" transform="matrix(1 0 0 1 540 540)"/>
  <g id="svg_2" transform="matrix(1 0 0 1 540 540)">
   <g id="svg_3">
    <g id="svg_4" transform="matrix(0.13 0 0 -0.13 0 0)">
     <path d="m1975,3466.31c-406,-30 -790,-205 -1071,-489c-254,-257 -405,-551 -470,-915c-20,-117 -23,-392 -5,-500c71,-418 250,-749 546,-1012c305,-271 688,-418 1095,-421c356,-2 657,90 969,297c270,179 508,491 617,807c72,210 98,363 97,579c-2,268 -63,520 -184,749c-252,481 -678,791 -1219,886c-81,14 -293,25 -375,19zm440,-84c674,-146 1183,-696 1275,-1377c18,-132 8,-410 -20,-538c-67,-313 -228,-605 -451,-820c-153,-147 -249,-216 -428,-305c-352,-176 -807,-210 -1187,-89c-367,116 -681,358 -889,683c-95,149 -176,349 -215,531c-28,128 -38,406 -20,538c39,288 156,567 331,787c260,327 607,532 1025,605c123,22 450,13 579,-15z" fill="#0b53b7" fill-rule="nonzero" id="svg_5" stroke-dashoffset="0" stroke-miterlimit="4" transform="translate(-2085.06 -1806.32)"/>
    </g>
    <g id="svg_6" transform="matrix(0.13 0 0 -0.13 0.28 -0.13)">
     <path d="m2000,3385.31c-402,-22 -780,-197 -1060,-490c-220,-230 -351,-479 -415,-792c-37,-176 -36,-436 1,-621c25,-123 91,-308 150,-420c74,-140 149,-243 264,-363c328,-344 791,-522 1260,-486c291,22 533,105 781,270c127,85 333,291 418,419c282,424 352,923 197,1396c-44,132 -148,329 -234,444c-284,377 -697,604 -1166,640c-67,5 -125,9 -131,8c-5,-1 -35,-3 -65,-5zm237,-652c141,-59 142,-60 205,-51c85,13 215,12 239,0c15,-9 19,-22 19,-66c0,-35 4,-56 13,-58c6,-2 38,-9 70,-16l57,-11l0,-625l0,-624l-27,0c-16,0 -66,7 -113,15c-146,25 -363,34 -710,30c-242,-2 -367,-8 -450,-20c-63,-9 -136,-19 -162,-22l-48,-6l0,627l0,626l23,5c12,3 42,9 67,13l45,7l3,58c3,51 6,59 28,67c31,12 193,12 253,1c40,-8 55,-4 185,50c77,32 146,58 151,59c6,0 74,-27 152,-59zm-829,-1657c3,-36 -11,-68 -98,-238c-94,-181 -118,-214 -135,-186c-4,6 39,98 95,206c56,107 99,202 96,210c-4,11 -26,14 -90,14c-91,0 -101,-6 -92,-57c5,-24 -17,-49 -34,-38c-11,7 -14,118 -3,129c4,3 63,5 132,4l126,-3l3,-41zm189,34c20,-31 142,-453 133,-462c-17,-17 -39,3 -52,51l-14,48l-91,3l-91,3l-12,-51c-12,-51 -32,-72 -51,-53c-9,9 23,123 122,441c11,33 40,44 56,20zm385,2c20,-6 48,-24 62,-41c22,-26 26,-41 26,-93c0,-103 -51,-146 -170,-146l-60,0l0,-95c0,-88 -1,-95 -20,-95c-19,0 -20,7 -20,233c0,129 3,237 7,240c10,11 134,8 175,-3zm373,-12c42,-22 60,-60 59,-127c-1,-98 -51,-141 -163,-141l-60,0l-3,-92c-3,-85 -5,-93 -23,-93c-19,0 -20,8 -23,225c-1,123 0,231 3,238c7,20 168,12 210,-10zm173,-201l2,-217l100,0c94,0 100,-1 100,-20c0,-20 -5,-20 -122,-18l-123,3l-3,224c-2,159 1,228 9,238c29,34 34,5 37,-210zm262,94c30,-61 57,-111 60,-111c3,0 33,55 68,121c59,111 82,137 90,98c1,-8 -27,-71 -64,-139l-67,-125l-5,-97c-3,-88 -6,-98 -23,-98c-17,0 -19,8 -19,91l0,91l-72,139c-60,115 -70,141 -58,148c21,14 30,3 90,-118z" fill="#0b53b7" fill-rule="nonzero" id="svg_7" stroke-dashoffset="0" stroke-miterlimit="4" transform="translate(-2087.18 -1807.29)"/>
    </g>
    <g id="svg_8" transform="matrix(0.13 0 0 -0.13 0.61 -100.42)">
     <path d="m1866,2652.31c-116,-48 -216,-92 -224,-96c-10,-7 53,-37 209,-102c123,-51 229,-92 236,-92c26,0 464,187 451,193c-7,3 -112,46 -232,96c-120,50 -222,91 -225,90c-3,0 -100,-40 -215,-89z" fill="#0b53b7" fill-rule="nonzero" id="svg_9" stroke-dashoffset="0" stroke-miterlimit="4" transform="translate(-2089.63 -2559.51)"/>
    </g>
    <g id="svg_10" transform="matrix(0.13 0 0 -0.13 -39.34 -30.49)">
     <path d="m1520,2089.31l0,-552l103,-2c154,-3 283,-35 379,-93c26,-17 50,-30 53,-30c3,0 5,145 5,323l0,323l-72,12c-108,17 -169,38 -210,72l-38,31l0,138l0,138l-39,15c-22,9 -42,13 -45,10c-13,-12 -6,-131 8,-139c51,-30 46,-152 -10,-219l-24,-29l-24,29c-48,58 -62,170 -25,207c18,18 21,33 20,95c0,41 0,78 0,82c-1,4 -17,14 -36,21c-63,22 -47,44 63,86c39,16 72,30 72,32c0,1 -40,3 -90,3l-90,0l0,-553zm256,-103c96,-19 244,-88 244,-113c0,-30 -11,-31 -61,-5c-107,54 -228,84 -337,84c-52,0 -68,10 -58,35c7,20 110,20 212,-1zm-46,-224c132,-21 290,-87 290,-122c0,-29 -19,-30 -63,-5c-90,51 -227,87 -333,87c-54,0 -70,10 -60,35c7,18 71,20 166,5z" fill="#0b53b7" fill-rule="nonzero" id="svg_11" stroke-dashoffset="0" stroke-miterlimit="4" transform="translate(-1790 -2035)"/>
    </g>
    <g id="svg_12" transform="matrix(0.13 0 0 -0.13 39.33 -29.82)">
     <path d="m2486,2633.31c5,-4 42,-21 82,-36c101,-39 97,-52 -30,-106l-102,-44l-2,-133c-2,-122 -4,-136 -24,-157c-34,-36 -131,-74 -219,-87l-81,-12l0,-328l0,-328l53,33c104,66 223,97 385,100l102,2l0,552l0,553l-87,0c-49,0 -83,-4 -77,-9zm129,-641c15,-25 -17,-40 -85,-40c-85,0 -206,-31 -290,-74c-68,-35 -90,-36 -90,-7c0,11 25,30 73,54c62,32 108,47 212,70c41,9 174,7 180,-3zm0,-245c0,-18 -9,-21 -96,-26c-112,-8 -187,-28 -281,-75c-71,-36 -88,-36 -88,-5c0,26 130,88 233,111c48,11 113,18 157,17c68,-2 75,-4 75,-22z" fill="#0b53b7" fill-rule="nonzero" id="svg_13" stroke-dashoffset="0" stroke-miterlimit="4" transform="translate(-2380 -2030)"/>
    </g>
    <g id="svg_14" transform="matrix(0.13 0 0 -0.13 52.33 -16.29)">
     <path d="m2698,1999.31l-3,-512l-114,-2c-147,-3 -257,-24 -345,-67l-71,-34l115,-1c157,-1 417,-26 493,-47c16,-5 17,27 17,575l0,581l-27,5c-69,15 -63,68 -65,-498z" fill="#0b53b7" fill-rule="nonzero" id="svg_15" stroke-dashoffset="0" stroke-miterlimit="4" transform="translate(-2477.5 -1928.5)"/>
    </g>
    <g id="svg_16" transform="matrix(0.13 0 0 -0.13 -52.34 -15.69)">
     <path d="m1393,2495.31c-10,-4 -13,-130 -13,-585l0,-580l23,6c64,17 272,39 427,45l175,6l-55,27c-95,47 -200,69 -340,69c-85,0 -127,4 -132,12c-4,7 -8,236 -8,510l0,497l-32,-1c-18,0 -39,-3 -45,-6z" fill="#0b53b7" fill-rule="nonzero" id="svg_17" stroke-dashoffset="0" stroke-miterlimit="4" transform="translate(-1692.5 -1924)"/>
    </g>
    <g id="svg_18" transform="matrix(0.13 0 0 -0.13 -0.1 -62.49)">
     <path d="m1790,2309.31l0,-116l33,-24c37,-29 167,-57 258,-57c79,0 204,26 254,53l40,22l3,118c1,64 1,117 -1,117c-3,0 -65,-25 -138,-56c-74,-30 -141,-56 -149,-56c-8,-1 -73,22 -145,51c-71,30 -136,56 -142,58c-10,4 -13,-22 -13,-110z" fill="#0b53b7" fill-rule="nonzero" id="svg_19" stroke-dashoffset="0" stroke-miterlimit="4" transform="translate(-2084.33 -2275)"/>
    </g>
    <g id="svg_20" transform="matrix(0.13 0 0 -0.13 -60.67 -63.82)">
     <path d="m1610,2277.31c0,-8 9,-15 20,-15c11,0 20,7 20,15c0,8 -9,15 -20,15c-11,0 -20,-7 -20,-15z" fill="#0b53b7" fill-rule="nonzero" id="svg_21" stroke-dashoffset="0" stroke-miterlimit="4" transform="translate(-1630 -2285)"/>
    </g>
    <g id="svg_22" transform="matrix(0.13 0 0 -0.13 -60.4 -52.49)">
     <path d="m1620,2192.31c0,-11 4,-20 9,-20c5,0 11,9 14,20c3,13 0,20 -9,20c-8,0 -14,-9 -14,-20z" fill="#0b53b7" fill-rule="nonzero" id="svg_23" stroke-dashoffset="0" stroke-miterlimit="4" transform="translate(-1632.06 -2200)"/>
    </g>
    <g id="svg_24" transform="matrix(0.13 0 0 -0.13 -68.16 117.71)">
     <path d="m1537,923.31c-20,-65 -37,-121 -37,-125c0,-3 34,-6 76,-6c62,0 75,3 71,14c-3,8 -20,63 -38,123c-17,59 -33,109 -34,110c-1,2 -18,-50 -38,-116z" fill="#0b53b7" fill-rule="nonzero" id="svg_25" stroke-dashoffset="0" stroke-miterlimit="4" transform="translate(-1573.83 -923.53)"/>
    </g>
    <g id="svg_26" transform="matrix(0.13 0 0 -0.13 -20.41 109.74)">
     <path d="m1848,1076.31c-5,-4 -8,-52 -8,-107l0,-99l70,4c93,5 114,24 114,103c0,75 -19,93 -104,101c-36,4 -68,3 -72,-2z" fill="#0b53b7" fill-rule="nonzero" id="svg_27" stroke-dashoffset="0" stroke-miterlimit="4" transform="translate(-1932 -983.23)"/>
    </g>
    <g id="svg_28" transform="matrix(0.13 0 0 -0.13 25.99 109.31)">
     <path d="m2190,978.31l0,-106l49,0c96,0 131,29 131,110c0,63 -31,89 -112,97l-68,6l0,-107z" fill="#0b53b7" fill-rule="nonzero" id="svg_29" stroke-dashoffset="0" stroke-miterlimit="4" transform="translate(-2280 -986.5)"/>
    </g>
   </g>
  </g>
 </g>
</svg>